<svg width="71" height="70" viewBox="0 0 71 70" fill="none" xmlns="http://www.w3.org/2000/svg">
    <path d="M35.4995 31.8533C34.7315 31.8533 33.995 32.1583 33.4519 32.7014C32.9088 33.2445 32.6038 33.981 32.6038 34.749V46.332C32.6038 47.1 32.9088 47.8365 33.4519 48.3796C33.995 48.9227 34.7315 49.2277 35.4995 49.2277C36.2675 49.2277 37.004 48.9227 37.5471 48.3796C38.0902 47.8365 38.3953 47.1 38.3953 46.332V34.749C38.3953 33.981 38.0902 33.2445 37.5471 32.7014C37.004 32.1583 36.2675 31.8533 35.4995 31.8533ZM36.5999 20.5019C35.8949 20.2123 35.1041 20.2123 34.3991 20.5019C34.0437 20.6397 33.7189 20.8464 33.4435 21.11C33.1877 21.3915 32.9821 21.7147 32.8354 22.0656C32.6733 22.4093 32.594 22.7861 32.6038 23.166C32.6016 23.5471 32.6746 23.9249 32.8187 24.2777C32.9628 24.6305 33.1751 24.9514 33.4435 25.222C33.725 25.4778 34.0482 25.6834 34.3991 25.8301C34.8378 26.0103 35.3141 26.08 35.786 26.0331C36.258 25.9862 36.7112 25.8241 37.1058 25.561C37.5004 25.2979 37.8244 24.9419 38.0492 24.5243C38.2741 24.1067 38.3929 23.6403 38.3953 23.166C38.3846 22.3993 38.0846 21.6649 37.5555 21.11C37.2801 20.8464 36.9553 20.6397 36.5999 20.5019ZM35.4995 5.7915C29.7723 5.7915 24.1736 7.48983 19.4116 10.6717C14.6495 13.8536 10.938 18.3762 8.74626 23.6674C6.55454 28.9587 5.98108 34.7811 7.09842 40.3983C8.21575 46.0155 10.9737 51.1753 15.0235 55.225C19.0732 59.2748 24.233 62.0328 29.8502 63.1501C35.4674 64.2674 41.2898 63.694 46.5811 61.5022C51.8724 59.3105 56.3949 55.599 59.5768 50.8369C62.7587 46.0749 64.457 40.4762 64.457 34.749C64.457 30.9462 63.708 27.1807 62.2527 23.6674C60.7975 20.1542 58.6645 16.9619 55.9755 14.273C53.2866 11.584 50.0943 9.45101 46.5811 7.99576C43.0678 6.54051 39.3023 5.7915 35.4995 5.7915ZM35.4995 57.915C30.9177 57.915 26.4388 56.5563 22.6292 54.0108C18.8195 51.4653 15.8503 47.8473 14.0969 43.6142C12.3435 39.3812 11.8848 34.7233 12.7786 30.2295C13.6725 25.7358 15.8788 21.608 19.1187 18.3682C22.3585 15.1283 26.4863 12.922 30.98 12.0281C35.4738 11.1343 40.1317 11.593 44.3647 13.3464C48.5978 15.0998 52.2158 18.069 54.7613 21.8787C57.3068 25.6883 58.6655 30.1672 58.6655 34.749C58.6655 40.893 56.2248 46.7854 51.8803 51.1298C47.5359 55.4743 41.6435 57.915 35.4995 57.915Z" fill="#EB5757"/>
</svg>
