<svg width="20" height="20" viewBox="0 0 20 20" fill="none" xmlns="http://www.w3.org/2000/svg">
    <path d="M10.0033 0C5.82836 0 4.60736 0.00430688 4.37002 0.0239955C3.51325 0.0952129 2.98012 0.230111 2.39931 0.519287C1.9517 0.741553 1.59869 0.999197 1.25029 1.36036C0.615799 2.01901 0.231256 2.82931 0.0920511 3.79252C0.0243715 4.26012 0.00468288 4.35549 0.000683632 6.74396C-0.00085454 7.54012 0.000683632 8.58792 0.000683632 9.99335C0.000683632 14.1649 0.00529815 15.3846 0.0252944 15.6215C0.0945121 16.4552 0.225257 16.9797 0.502128 17.5535C1.03126 18.6517 2.04184 19.4762 3.23238 19.7838C3.64461 19.89 4.09991 19.9484 4.68442 19.9761C4.93206 19.9869 7.4562 19.9946 9.98188 19.9946C12.5076 19.9946 15.0332 19.9915 15.2747 19.9792C15.9515 19.9473 16.3445 19.8946 16.7791 19.7823C17.3694 19.6309 17.9195 19.3525 18.3911 18.9664C18.8627 18.5804 19.2443 18.0961 19.5093 17.5473C19.7808 16.9874 19.9185 16.4429 19.9808 15.6528C19.9943 15.4805 20 12.7338 20 9.99074C20 7.24725 19.9938 4.50561 19.9803 4.33334C19.9172 3.53041 19.7796 2.99051 19.4993 2.41985C19.2694 1.95271 19.014 1.60385 18.6433 1.24715C17.9819 0.615269 17.1728 0.230726 16.2086 0.0916751C15.7414 0.0241493 15.6484 0.00415307 13.258 0H10.0033Z" fill="url(#paint0_radial_18_1084)"/>
    <path d="M10.0033 0C5.82836 0 4.60736 0.00430688 4.37002 0.0239955C3.51325 0.0952129 2.98012 0.230111 2.39931 0.519287C1.9517 0.741553 1.59869 0.999197 1.25029 1.36036C0.615799 2.01901 0.231256 2.82931 0.0920511 3.79252C0.0243715 4.26012 0.00468288 4.35549 0.000683632 6.74396C-0.00085454 7.54012 0.000683632 8.58792 0.000683632 9.99335C0.000683632 14.1649 0.00529815 15.3846 0.0252944 15.6215C0.0945121 16.4552 0.225257 16.9797 0.502128 17.5535C1.03126 18.6517 2.04184 19.4762 3.23238 19.7838C3.64461 19.89 4.09991 19.9484 4.68442 19.9761C4.93206 19.9869 7.4562 19.9946 9.98188 19.9946C12.5076 19.9946 15.0332 19.9915 15.2747 19.9792C15.9515 19.9473 16.3445 19.8946 16.7791 19.7823C17.3694 19.6309 17.9195 19.3525 18.3911 18.9664C18.8627 18.5804 19.2443 18.0961 19.5093 17.5473C19.7808 16.9874 19.9185 16.4429 19.9808 15.6528C19.9943 15.4805 20 12.7338 20 9.99074C20 7.24725 19.9938 4.50561 19.9803 4.33334C19.9172 3.53041 19.7796 2.99051 19.4993 2.41985C19.2694 1.95271 19.014 1.60385 18.6433 1.24715C17.9819 0.615269 17.1728 0.230726 16.2086 0.0916751C15.7414 0.0241493 15.6484 0.00415307 13.258 0H10.0033Z" fill="url(#paint1_radial_18_1084)"/>
    <path d="M9.99868 2.61499C7.99352 2.61499 7.74187 2.62376 6.95433 2.6596C6.16832 2.69559 5.63181 2.82003 5.16236 3.00261C4.67676 3.19119 4.26483 3.44345 3.85445 3.85399C3.44376 4.26437 3.1915 4.6763 3.0023 5.16174C2.81926 5.63135 2.69467 6.16802 2.65929 6.95371C2.62422 7.74126 2.61499 7.99306 2.61499 9.99822C2.61499 12.0034 2.62391 12.2543 2.6596 13.0418C2.69574 13.8278 2.82018 14.3643 3.00261 14.8338C3.19134 15.3194 3.4436 15.7313 3.85414 16.1417C4.26437 16.5524 4.6763 16.8052 5.16159 16.9938C5.63135 17.1764 6.16801 17.3008 6.95387 17.3368C7.74141 17.3727 7.9929 17.3814 9.99791 17.3814C12.0032 17.3814 12.2541 17.3727 13.0416 17.3368C13.8277 17.3008 14.3648 17.1764 14.8345 16.9938C15.32 16.8052 15.7313 16.5524 16.1415 16.1417C16.5522 15.7313 16.8045 15.3194 16.9937 14.8339C17.1752 14.3643 17.2998 13.8277 17.3367 13.042C17.3721 12.2544 17.3813 12.0034 17.3813 9.99822C17.3813 7.99306 17.3721 7.74141 17.3367 6.95387C17.2998 6.16786 17.1752 5.63135 16.9937 5.1619C16.8045 4.6763 16.5522 4.26437 16.1415 3.85399C15.7308 3.4433 15.3201 3.19104 14.8341 3.00261C14.3634 2.82003 13.8266 2.69559 13.0406 2.6596C12.253 2.62376 12.0023 2.61499 9.99652 2.61499H9.99868ZM9.33634 3.94551C9.53292 3.9452 9.75226 3.94551 9.99868 3.94551C11.97 3.94551 12.2036 3.95259 12.9821 3.98796C13.702 4.02088 14.0927 4.14117 14.3529 4.24222C14.6975 4.37604 14.9431 4.53601 15.2014 4.79443C15.4598 5.05284 15.6198 5.29895 15.7539 5.6435C15.855 5.90345 15.9754 6.29414 16.0082 7.01401C16.0435 7.79233 16.0512 8.02613 16.0512 9.99653C16.0512 11.9669 16.0435 12.2007 16.0082 12.979C15.9752 13.6989 15.855 14.0896 15.7539 14.3496C15.6201 14.6941 15.4598 14.9394 15.2014 15.1977C14.943 15.4561 14.6976 15.6161 14.3529 15.7499C14.093 15.8514 13.702 15.9714 12.9821 16.0043C12.2038 16.0397 11.97 16.0474 9.99868 16.0474C8.0272 16.0474 7.79355 16.0397 7.01524 16.0043C6.29537 15.9711 5.90468 15.8508 5.64427 15.7498C5.29972 15.6159 5.05361 15.456 4.7952 15.1975C4.53678 14.9391 4.37681 14.6936 4.24268 14.3489C4.14163 14.089 4.02119 13.6983 3.98842 12.9784C3.95305 12.2001 3.94597 11.9663 3.94597 9.99468C3.94597 8.02305 3.95305 7.79048 3.98842 7.01216C4.02134 6.2923 4.14163 5.9016 4.24268 5.64134C4.37651 5.29679 4.53678 5.05069 4.7952 4.79227C5.05361 4.53386 5.29972 4.37389 5.64427 4.23976C5.90453 4.13824 6.29537 4.01827 7.01524 3.98519C7.69634 3.95443 7.96029 3.9452 9.33634 3.94366V3.94551ZM13.9398 5.17143C13.7645 5.17143 13.5932 5.2234 13.4475 5.32077C13.3018 5.41814 13.1883 5.55653 13.1212 5.71844C13.0542 5.88035 13.0366 6.05851 13.0708 6.23038C13.1051 6.40225 13.1895 6.56012 13.3134 6.68402C13.4373 6.80791 13.5952 6.89227 13.7671 6.92642C13.939 6.96057 14.1172 6.94298 14.279 6.87588C14.4409 6.80877 14.5793 6.69516 14.6766 6.54942C14.7739 6.40368 14.8258 6.23236 14.8258 6.05711C14.8258 5.56797 14.4289 5.17113 13.9398 5.17113V5.17143ZM9.99868 6.20662C7.90476 6.20662 6.20708 7.9043 6.20708 9.99822C6.20708 12.0921 7.90476 13.789 9.99868 13.789C12.0926 13.789 13.7898 12.0921 13.7898 9.99822C13.7898 7.9043 12.0924 6.20662 9.99852 6.20662H9.99868ZM9.99868 7.53714C11.3578 7.53714 12.4598 8.63894 12.4598 9.99822C12.4598 11.3573 11.3578 12.4593 9.99868 12.4593C8.6394 12.4593 7.5376 11.3573 7.5376 9.99822C7.5376 8.63894 8.6394 7.53714 9.99868 7.53714Z" fill="white"/>
    <defs>
        <radialGradient id="paint0_radial_18_1084" cx="0" cy="0" r="1" gradientUnits="userSpaceOnUse" gradientTransform="translate(5.31253 21.5346) rotate(-90) scale(19.8161 18.4355)">
            <stop stop-color="#FFDD55"/>
            <stop offset="0.1" stop-color="#FFDD55"/>
            <stop offset="0.5" stop-color="#FF543E"/>
            <stop offset="1" stop-color="#C837AB"/>
        </radialGradient>
        <radialGradient id="paint1_radial_18_1084" cx="0" cy="0" r="1" gradientUnits="userSpaceOnUse" gradientTransform="translate(-3.35011 1.44037) rotate(78.6776) scale(8.85796 36.5221)">
            <stop stop-color="#3771C8"/>
            <stop offset="0.128" stop-color="#3771C8"/>
            <stop offset="1" stop-color="#6600FF" stop-opacity="0"/>
        </radialGradient>
    </defs>
</svg>
