<svg width="15" height="16" viewBox="0 0 15 16" fill="none" xmlns="http://www.w3.org/2000/svg">
    <path d="M13.2395 6.9302C13.6793 6.74648 13.8993 6.65462 13.961 6.52474C14.0145 6.41221 14.0129 6.27858 13.9566 6.1676C13.8917 6.0395 13.6697 5.95387 13.2255 5.78261L1.89635 1.4145C1.53295 1.27438 1.35124 1.20432 1.23246 1.24851C1.12918 1.28692 1.04801 1.3741 1.01225 1.48502C0.971111 1.61261 1.03634 1.80777 1.16679 2.1981L5.23363 14.3664C5.39308 14.8435 5.47281 15.082 5.59207 15.1517C5.6954 15.2121 5.81981 15.2139 5.92458 15.1564C6.0455 15.0901 6.13103 14.8539 6.30208 14.3815L8.15359 9.26779C8.1871 9.17525 8.20385 9.12897 8.22973 9.09001C8.25267 9.05547 8.28078 9.02527 8.31294 9.00064C8.34922 8.97284 8.3923 8.95485 8.47846 8.91886L13.2395 6.9302Z" stroke="#FF5A61" stroke-width="1.5" stroke-linecap="round" stroke-linejoin="round"/>
</svg>
