<svg width="24" height="27" viewBox="0 0 24 27" fill="none" xmlns="http://www.w3.org/2000/svg">
<path d="M7.88804 15.0078L16.1241 19.8071M16.1121 6.56665L7.88804 11.366M22.8529 4.74579C22.8529 6.74374 21.2332 8.3634 19.2353 8.3634C17.2373 8.3634 15.6177 6.74374 15.6177 4.74579C15.6177 2.74784 17.2373 1.12817 19.2353 1.12817C21.2332 1.12817 22.8529 2.74784 22.8529 4.74579ZM8.38245 13.1869C8.38245 15.1848 6.76278 16.8045 4.76483 16.8045C2.76688 16.8045 1.14722 15.1848 1.14722 13.1869C1.14722 11.1889 2.76688 9.56927 4.76483 9.56927C6.76278 9.56927 8.38245 11.1889 8.38245 13.1869ZM22.8529 21.628C22.8529 23.6259 21.2332 25.2456 19.2353 25.2456C17.2373 25.2456 15.6177 23.6259 15.6177 21.628C15.6177 19.63 17.2373 18.0104 19.2353 18.0104C21.2332 18.0104 22.8529 19.63 22.8529 21.628Z" stroke="black" stroke-opacity="0.55" stroke-width="1.71514" stroke-linecap="round" stroke-linejoin="round"/>
</svg>
