<svg width="41" height="40" viewBox="0 0 41 40" fill="none" xmlns="http://www.w3.org/2000/svg">
    <circle cx="20.5" cy="20.0005" r="19.1116" fill="#FF5A61" stroke="white" stroke-width="1.77782"/>
    <path fill-rule="evenodd" clip-rule="evenodd" d="M26.0986 18.2055C26.8975 18.297 27.6531 18.5309 28.3395 18.8811C29.0449 19.2411 30.0087 18.7894 29.8335 18.0171C29.0129 14.3995 26.0651 11.5086 22.4119 10.7812C24.3615 12.7487 25.6949 15.328 26.0986 18.2055ZM19.5178 10.667C16.077 11.0645 13.1994 13.3106 11.9035 16.3866C12.2824 16.3482 12.6669 16.3285 13.056 16.3285C16.2049 16.3285 19.0524 17.6186 21.0989 19.699C21.997 18.9483 23.0973 18.4315 24.3062 18.2422C23.8057 15.1061 22.0255 12.397 19.5178 10.667ZM13.056 18.1063C15.7428 18.1063 18.1692 19.2213 19.8977 21.0138C19.4814 21.6148 19.162 22.2881 18.9624 23.0111C17.7677 22.3641 16.3995 21.9967 14.9454 21.9967C13.7401 21.9967 12.5937 22.2492 11.5563 22.7041C11.3028 21.8602 11.1663 20.9696 11.1663 20.0517C11.1663 19.4397 11.2245 18.8412 11.3356 18.2616C11.8936 18.1596 12.4686 18.1063 13.056 18.1063ZM18.7266 24.9493C18.7528 25.9656 19.0083 26.9249 19.4433 27.7773C19.8032 28.4827 19.3516 29.4465 18.5793 29.2713C15.8347 28.6488 13.5085 26.8019 12.2279 24.3515C13.0579 23.9807 13.9776 23.7746 14.9454 23.7746C16.3494 23.7746 17.652 24.2084 18.7266 24.9493Z" fill="white"/>
</svg>
