<svg width="45" height="45" viewBox="0 0 45 45" fill="none" xmlns="http://www.w3.org/2000/svg">
<circle cx="22.5" cy="22.5" r="21.5" fill="white" stroke="#05E06F" stroke-width="2"/>
<path fill-rule="evenodd" clip-rule="evenodd" d="M28.7982 20.4805C29.6971 20.5835 30.5472 20.8466 31.3194 21.2406C32.113 21.6456 33.1972 21.1375 33.0001 20.2686C32.077 16.1987 28.7605 12.9466 24.6506 12.1284C26.844 14.3418 28.3441 17.2434 28.7982 20.4805ZM21.3949 12C17.5243 12.4473 14.2872 14.9741 12.8294 18.4343C13.2556 18.3911 13.6881 18.3689 14.1257 18.3689C17.6681 18.3689 20.8716 19.8203 23.1739 22.1609C24.1841 21.3164 25.4219 20.7349 26.7818 20.5219C26.2188 16.9939 24.2161 13.9461 21.3949 12ZM14.1257 20.3689C17.1484 20.3689 19.8781 21.6233 21.8226 23.6399C21.3542 24.3161 20.9949 25.0737 20.7703 25.8871C19.4264 25.1592 17.8872 24.7459 16.2514 24.7459C14.8955 24.7459 13.6059 25.0299 12.4389 25.5417C12.1537 24.5922 12 23.5902 12 22.5575C12 21.869 12.0655 21.1957 12.1905 20.5436C12.8182 20.4289 13.4649 20.3689 14.1257 20.3689ZM20.5052 28.0675C20.5347 29.2107 20.8222 30.2898 21.3114 31.2486C21.7164 32.0422 21.2083 33.1264 20.3394 32.9293C17.252 32.229 14.6351 30.1514 13.1945 27.3949C14.1282 26.9778 15.1627 26.7459 16.2514 26.7459C17.8309 26.7459 19.2963 27.234 20.5052 28.0675Z" fill="#05E06F"/>
</svg>
