<svg width="47" height="47" viewBox="0 0 47 47" fill="none" xmlns="http://www.w3.org/2000/svg">
<circle cx="23.5" cy="23.5" r="21.5" fill="#FF5570" stroke="white" stroke-width="2"/>
<path fill-rule="evenodd" clip-rule="evenodd" d="M29.7982 21.4805C30.6971 21.5835 31.5472 21.8466 32.3194 22.2406C33.113 22.6456 34.1972 22.1375 34.0001 21.2686C33.077 17.1987 29.7605 13.9466 25.6506 13.1284C27.844 15.3418 29.3441 18.2434 29.7982 21.4805ZM22.3949 13C18.5243 13.4473 15.2872 15.9741 13.8294 19.4343C14.2556 19.3911 14.6881 19.3689 15.1257 19.3689C18.6681 19.3689 21.8716 20.8203 24.1739 23.1609C25.1841 22.3164 26.4219 21.7349 27.7818 21.5219C27.2188 17.9939 25.2161 14.9461 22.3949 13ZM15.1257 21.3689C18.1484 21.3689 20.8781 22.6233 22.8226 24.6399C22.3542 25.3161 21.9949 26.0737 21.7703 26.8871C20.4264 26.1592 18.8872 25.7459 17.2514 25.7459C15.8955 25.7459 14.6059 26.0299 13.4389 26.5417C13.1537 25.5922 13 24.5902 13 23.5575C13 22.869 13.0655 22.1957 13.1905 21.5436C13.8182 21.4289 14.4649 21.3689 15.1257 21.3689ZM21.5052 29.0675C21.5347 30.2107 21.8222 31.2898 22.3114 32.2486C22.7164 33.0422 22.2083 34.1264 21.3394 33.9293C18.252 33.229 15.6351 31.1514 14.1945 28.3949C15.1282 27.9778 16.1627 27.7459 17.2514 27.7459C18.8309 27.7459 20.2963 28.234 21.5052 29.0675Z" fill="white"/>
</svg>
