<svg width="45" height="45" viewBox="0 0 45 45" fill="none" xmlns="http://www.w3.org/2000/svg">
<circle cx="22.5" cy="22.5" r="21.5" fill="white" stroke="#FF5A61" stroke-width="2"/>
<path d="M33 17.1538H26.8462V22.4462C26.8462 22.4462 26.8462 22.4462 26.8462 22.5385C26.8508 23.9378 27.7989 25.1578 29.1538 25.5077V31H28.3846C27.9598 31 27.6154 31.3445 27.6154 31.7692C27.6154 32.194 27.9598 32.5385 28.3846 32.5385H31.4615C31.8863 32.5385 32.2308 32.194 32.2308 31.7692C32.2308 31.3445 31.8863 31 31.4615 31H30.6923V25.5077C32.0472 25.1578 32.9954 23.9378 33 22.5385C33 22.5385 33 22.5385 33 22.4462V17.1538ZM31.4615 22.5385C31.4615 23.3882 30.7728 24.0769 29.9231 24.0769C29.0734 24.0769 28.3846 23.3882 28.3846 22.5385V18.6923H31.4615V22.5385ZM19.9231 14.8462V14.0769C20.3478 14.0769 20.6923 13.7325 20.6923 13.3077C20.6923 12.8829 20.3478 12.5385 19.9231 12.5385V11.7692C19.9231 11.3445 19.5786 11 19.1538 11H17.6154C17.1906 11 16.8462 11.3445 16.8462 11.7692V12.5385C16.4214 12.5385 16.0769 12.8829 16.0769 13.3077C16.0769 13.7325 16.4214 14.0769 16.8462 14.0769V14.8462C16.8462 17.0462 13 19.5692 13 21.7692V31C13 31.8497 13.6888 32.5385 14.5385 32.5385H22.2308C23.0489 32.4669 23.6977 31.8182 23.7692 31V21.7692C23.7692 19.6923 19.9231 16.9231 19.9231 14.8462ZM18.3846 29.4615C16.2605 29.4615 14.5385 27.7395 14.5385 25.6154C14.5385 23.4912 16.2605 21.7692 18.3846 21.7692C20.5088 21.7692 22.2308 23.4912 22.2308 25.6154C22.2308 27.7395 20.5088 29.4615 18.3846 29.4615Z" fill="#FF5A61"/>
</svg>
