<svg width="41" height="40" viewBox="0 0 41 40" fill="none" xmlns="http://www.w3.org/2000/svg">
    <circle cx="20.5" cy="20.0005" r="19.1116" fill="#FF5A61" stroke="white" stroke-width="1.77782"/>
    <path d="M29.8336 15.2483H24.3634V19.9527C24.3634 19.9527 24.3634 19.9527 24.3634 20.0347C24.3675 21.2786 25.2103 22.3631 26.4147 22.6741V27.5563H25.7309C25.3534 27.5563 25.0472 27.8625 25.0472 28.24C25.0472 28.6176 25.3534 28.9238 25.7309 28.9238H28.4661C28.8436 28.9238 29.1498 28.6176 29.1498 28.24C29.1498 27.8625 28.8436 27.5563 28.4661 27.5563H27.7823V22.6741C28.9867 22.3631 29.8295 21.2786 29.8336 20.0347C29.8336 20.0347 29.8336 20.0347 29.8336 19.9527V15.2483ZM28.4661 20.0347C28.4661 20.79 27.8538 21.4023 27.0985 21.4023C26.3432 21.4023 25.7309 20.79 25.7309 20.0347V16.6158H28.4661V20.0347ZM18.2094 13.197V12.5132C18.587 12.5132 18.8932 12.207 18.8932 11.8294C18.8932 11.4518 18.587 11.1456 18.2094 11.1456V10.4619C18.2094 10.0843 17.9032 9.77808 17.5256 9.77808H16.1581C15.7805 9.77808 15.4743 10.0843 15.4743 10.4619V11.1456C15.0967 11.1456 14.7905 11.4518 14.7905 11.8294C14.7905 12.207 15.0967 12.5132 15.4743 12.5132V13.197C15.4743 15.1526 12.0554 17.3953 12.0554 19.3509V27.5563C12.0554 28.3116 12.6677 28.9238 13.423 28.9238H20.2607C20.988 28.8602 21.5647 28.2835 21.6283 27.5563V19.3509C21.6283 17.5047 18.2094 15.0432 18.2094 13.197ZM16.8419 26.1887C14.9537 26.1887 13.423 24.658 13.423 22.7698C13.423 20.8816 14.9537 19.3509 16.8419 19.3509C18.73 19.3509 20.2607 20.8816 20.2607 22.7698C20.2607 24.658 18.73 26.1887 16.8419 26.1887Z" fill="white"/>
</svg>
