<svg width="45" height="45" viewBox="0 0 45 45" fill="none" xmlns="http://www.w3.org/2000/svg">
<circle cx="22.5" cy="22.5" r="21.5" fill="#05E06F" stroke="white" stroke-width="2"/>
<path d="M32 17.6H28.4V14H14V21.2C14.0239 25.1764 17.2668 28.3804 21.2432 28.3564C23.7821 28.3411 26.1252 26.9899 27.41 24.8H32C33.9883 24.8 35.6 23.1883 35.6 21.2C35.6 19.2117 33.9883 17.6 32 17.6ZM32 23H28.148C28.3077 22.413 28.3924 21.8082 28.4 21.2V19.4H32C32.9941 19.4 33.8 20.2059 33.8 21.2C33.8 22.1941 32.9941 23 32 23ZM28.4 31.1C28.4 31.597 27.997 32 27.5 32H14.9C14.403 32 14 31.597 14 31.1C14 30.603 14.403 30.2 14.9 30.2H27.5C27.997 30.2 28.4 30.603 28.4 31.1Z" fill="white"/>
</svg>
