<svg width="41" height="40" viewBox="0 0 41 40" fill="none" xmlns="http://www.w3.org/2000/svg">
    <circle cx="20.5" cy="20.0005" r="19.1116" fill="#FF5A61" stroke="white" stroke-width="1.77782"/>
    <path d="M28.9447 15.6449H25.7446V12.4448H12.9443V18.845C12.9656 22.3796 15.8482 25.2277 19.3829 25.2064C21.6397 25.1928 23.7225 23.9917 24.8646 22.045H28.9447C30.7121 22.045 32.1448 20.6124 32.1448 18.845C32.1448 17.0776 30.7121 15.6449 28.9447 15.6449ZM28.9447 20.445H25.5206C25.6625 19.9232 25.7379 19.3856 25.7446 18.845V17.2449H28.9447C29.8284 17.2449 30.5447 17.9613 30.5447 18.845C30.5447 19.7287 29.8284 20.445 28.9447 20.445ZM25.7446 27.6452C25.7446 28.0869 25.3864 28.4452 24.9446 28.4452H13.7444C13.3026 28.4452 12.9443 28.0869 12.9443 27.6452C12.9443 27.2034 13.3026 26.8452 13.7444 26.8452H24.9446C25.3864 26.8452 25.7446 27.2034 25.7446 27.6452Z" fill="white"/>
</svg>
