<svg width="45" height="45" viewBox="0 0 45 45" fill="none" xmlns="http://www.w3.org/2000/svg">
<circle cx="22.5" cy="22.5" r="21.5" fill="white" stroke="#FF5A61" stroke-width="2"/>
<path d="M27.4813 12.0001C26.8632 12.0001 26.36 11.9664 26.2 13.2671L25.5594 17.3668L29.4 20.5837H32.6C34.84 20.5837 35 19.0245 35 19.0245L31.9594 15.417C30.8394 14.2789 29.72 14.0801 28.6 14.0801V13.2671C28.6 13.2671 28.708 11.9999 27.4813 12.0001ZM18.6 12.4542C18.6 12.4542 17.0788 12.4877 16.1188 12.813C15.1588 13.1382 14.2 14.277 14.2 15.9029V22.2446C14.2 25.0086 13.08 25.4614 12.6 25.4614C12.6 25.4614 11 25.4964 11 27.1223V30.698C11 30.698 11.0012 32 12.2812 32H12.6H13.4H14.2V31.187V30.8631C14.2 30.2128 13.88 29.8857 13.4 29.7231V27.9352C15 27.9352 15.16 27.6088 15.8 27.4462L16.6813 31.0187C16.8413 31.5065 17.0013 31.8311 17.4813 31.9936H19.0813L20.6 31.9651V30.6631C20.6 29.5633 19 29.5262 19 29.5262V25.4614H24.6L25.7188 29.7231C26.3588 31.9994 27.8 31.9651 27.8 31.9651H28.6H30.2V30.6631C30.2 29.5058 28.6 29.5262 28.6 29.5262L28.7594 22.8956L23.8 18.9578H16.6V15.706C16.6 15.0556 17.0424 14.9017 17.4 14.8931C18.1906 14.8739 18.6 14.8931 18.6 14.8931C19.2627 14.8931 19.8 14.3471 19.8 13.6736C19.8 13.0002 19.2627 12.4542 18.6 12.4542ZM29.8 16.519C30.021 16.519 30.2 16.7009 30.2 16.9254C30.2 17.15 30.021 17.3319 29.8 17.3319C29.579 17.3319 29.4 17.15 29.4 16.9254C29.4 16.7009 29.579 16.519 29.8 16.519Z" fill="#FF5A61"/>
</svg>
