<svg width="41" height="40" viewBox="0 0 41 40" fill="none" xmlns="http://www.w3.org/2000/svg">
    <circle cx="20.5" cy="20.0005" r="19.1116" fill="#FF5A61" stroke="white" stroke-width="1.77782"/>
    <path d="M24.9279 10.6671C24.3785 10.6671 23.9312 10.6371 23.789 11.7934L23.2196 15.4376L26.6335 18.2971H29.478C31.4692 18.2971 31.6114 16.9111 31.6114 16.9111L28.9086 13.7044C27.913 12.6927 26.918 12.516 25.9224 12.516V11.7934C25.9224 11.7934 26.0184 10.6669 24.9279 10.6671ZM17.0333 11.0707C17.0333 11.0707 15.681 11.1005 14.8277 11.3897C13.9743 11.6788 13.1221 12.691 13.1221 14.1363V19.7735C13.1221 22.2305 12.1265 22.633 11.6998 22.633C11.6998 22.633 10.2776 22.664 10.2776 24.1093V27.2878C10.2776 27.2878 10.2787 28.4452 11.4165 28.4452H11.6998H12.411H13.1221V27.7225V27.4346C13.1221 26.8565 12.8376 26.5657 12.411 26.4212V24.832C13.8332 24.832 13.9755 24.5418 14.5444 24.3973L15.3277 27.5729C15.4699 28.0065 15.6122 28.295 16.0388 28.4395H17.4611L18.8111 28.4141V27.2568C18.8111 26.2792 17.3889 26.2462 17.3889 26.2462V22.633H22.3668L23.3612 26.4212C23.9301 28.4446 25.2113 28.4141 25.2113 28.4141H25.9224H27.3446V27.2568C27.3446 26.228 25.9224 26.2462 25.9224 26.2462L26.0641 20.3522L21.6556 16.8519H15.2555V13.9613C15.2555 13.3832 15.6487 13.2463 15.9666 13.2387C16.6693 13.2216 17.0333 13.2387 17.0333 13.2387C17.6224 13.2387 18.1 12.7533 18.1 12.1547C18.1 11.5561 17.6224 11.0707 17.0333 11.0707ZM26.9891 14.6839C27.1855 14.6839 27.3446 14.8457 27.3446 15.0453C27.3446 15.2449 27.1855 15.4066 26.9891 15.4066C26.7927 15.4066 26.6335 15.2449 26.6335 15.0453C26.6335 14.8457 26.7927 14.6839 26.9891 14.6839Z" fill="white"/>
</svg>
