<svg width="47" height="47" viewBox="0 0 47 47" fill="none" xmlns="http://www.w3.org/2000/svg">
<circle cx="23.5" cy="23.5" r="21.5" fill="white" stroke="#FF5570" stroke-width="2"/>
<path d="M28.4813 13.0001C27.8632 13.0001 27.36 12.9664 27.2 14.2671L26.5594 18.3668L30.4 21.5837H33.6C35.84 21.5837 36 20.0245 36 20.0245L32.9594 16.417C31.8394 15.2789 30.72 15.0801 29.6 15.0801V14.2671C29.6 14.2671 29.708 12.9999 28.4813 13.0001ZM19.6 13.4542C19.6 13.4542 18.0788 13.4877 17.1188 13.813C16.1588 14.1382 15.2 15.277 15.2 16.9029V23.2446C15.2 26.0086 14.08 26.4614 13.6 26.4614C13.6 26.4614 12 26.4964 12 28.1223V31.698C12 31.698 12.0012 33 13.2812 33H13.6H14.4H15.2V32.187V31.8631C15.2 31.2128 14.88 30.8857 14.4 30.7231V28.9352C16 28.9352 16.16 28.6088 16.8 28.4462L17.6813 32.0187C17.8413 32.5065 18.0013 32.8311 18.4813 32.9936H20.0813L21.6 32.9651V31.6631C21.6 30.5633 20 30.5262 20 30.5262V26.4614H25.6L26.7188 30.7231C27.3588 32.9994 28.8 32.9651 28.8 32.9651H29.6H31.2V31.6631C31.2 30.5058 29.6 30.5262 29.6 30.5262L29.7594 23.8956L24.8 19.9578H17.6V16.706C17.6 16.0556 18.0424 15.9017 18.4 15.8931C19.1906 15.8739 19.6 15.8931 19.6 15.8931C20.2627 15.8931 20.8 15.3471 20.8 14.6736C20.8 14.0002 20.2627 13.4542 19.6 13.4542ZM30.8 17.519C31.021 17.519 31.2 17.7009 31.2 17.9254C31.2 18.15 31.021 18.3319 30.8 18.3319C30.579 18.3319 30.4 18.15 30.4 17.9254C30.4 17.7009 30.579 17.519 30.8 17.519Z" fill="#FF5570"/>
</svg>
